<svg width="75" height="83" viewBox="0 0 75 83" fill="none" xmlns="http://www.w3.org/2000/svg">
<path d="M51.6103 7.61077C50.9306 7.3253 50.1286 7.65155 49.8431 8.34483C49.5441 9.03811 49.8839 9.82655 50.5772 10.112C63.2737 15.4136 71.4844 27.7295 71.4844 41.5C71.4844 59.7836 56.9662 74.7367 38.8594 75.4436V72.7656C38.8594 72.2491 38.5739 71.7733 38.1117 71.5558C37.6495 71.3247 37.0922 71.3655 36.6844 71.6781L31.2469 75.7562C30.907 76.0145 30.7031 76.4223 30.7031 76.8437C30.7031 77.2651 30.907 77.673 31.2469 77.9312L36.6844 82.0094C36.9291 82.1861 37.2145 82.2812 37.5 82.2812C37.7039 82.2812 37.9214 82.2405 38.1117 82.1317C38.5739 81.9142 38.8594 81.4384 38.8594 80.9219V78.1623C58.4752 77.4555 74.2031 61.2789 74.2031 41.5C74.2031 26.6284 65.34 13.3337 51.6103 7.61077ZM24.4228 72.888C11.7262 67.5864 3.51562 55.2705 3.51562 41.5C3.51562 23.2164 18.0338 8.26327 36.1406 7.55639V10.2344C36.1406 10.7509 36.4261 11.2267 36.8883 11.4578C37.0786 11.553 37.2961 11.5937 37.5 11.5937C37.7855 11.5937 38.0709 11.4986 38.3156 11.3219L43.7531 7.24374C44.093 6.98546 44.2969 6.59124 44.2969 6.15624C44.2969 5.72124 44.093 5.32702 43.7531 5.06874L38.3156 0.990613C37.9078 0.677957 37.3505 0.637176 36.8883 0.868269C36.4261 1.09936 36.1406 1.56155 36.1406 2.07811V4.83764C16.5248 5.54452 0.796875 21.7211 0.796875 41.5C0.796875 56.3716 9.66 69.6662 23.3897 75.3892C23.5528 75.4708 23.7295 75.498 23.9062 75.498C24.4364 75.498 24.9394 75.1853 25.1569 74.6551C25.4559 73.9619 25.1161 73.1734 24.4228 72.888Z" fill="#71FBF7"/>
<path d="M36.1406 65.9688C36.1406 66.7164 36.7523 67.3281 37.5 67.3281C38.2477 67.3281 38.8594 66.7164 38.8594 65.9688V60.5312H45.6562V65.9688C45.6562 66.7164 46.268 67.3281 47.0156 67.3281C47.7633 67.3281 48.375 66.7164 48.375 65.9688V60.5312H55.1719C55.9195 60.5312 56.5312 59.9195 56.5312 59.1719V52.375H61.9688C62.7164 52.375 63.3281 51.7633 63.3281 51.0156C63.3281 50.268 62.7164 49.6562 61.9688 49.6562H56.5312V42.8594H61.9688C62.7164 42.8594 63.3281 42.2477 63.3281 41.5C63.3281 40.7523 62.7164 40.1406 61.9688 40.1406H56.5312V33.3438H61.9688C62.7164 33.3438 63.3281 32.732 63.3281 31.9844C63.3281 31.2367 62.7164 30.625 61.9688 30.625H56.5312V23.8281C56.5312 23.0805 55.9195 22.4688 55.1719 22.4688H48.375V17.0312C48.375 16.2836 47.7633 15.6719 47.0156 15.6719C46.268 15.6719 45.6562 16.2836 45.6562 17.0312V22.4688H38.8594V17.0312C38.8594 16.2836 38.2477 15.6719 37.5 15.6719C36.7523 15.6719 36.1406 16.2836 36.1406 17.0312V22.4688H29.3438V17.0312C29.3438 16.2836 28.732 15.6719 27.9844 15.6719C27.2367 15.6719 26.625 16.2836 26.625 17.0312V22.4688H19.8281C19.0805 22.4688 18.4688 23.0805 18.4688 23.8281V30.625H13.0312C12.2836 30.625 11.6719 31.2367 11.6719 31.9844C11.6719 32.732 12.2836 33.3438 13.0312 33.3438H18.4688V40.1406H13.0312C12.2836 40.1406 11.6719 40.7523 11.6719 41.5C11.6719 42.2477 12.2836 42.8594 13.0312 42.8594H18.4688V49.6562H13.0312C12.2836 49.6562 11.6719 50.268 11.6719 51.0156C11.6719 51.7633 12.2836 52.375 13.0312 52.375H18.4688V59.1719C18.4688 59.9195 19.0805 60.5312 19.8281 60.5312H26.625V65.9688C26.625 66.7164 27.2367 67.3281 27.9844 67.3281C28.732 67.3281 29.3438 66.7164 29.3438 65.9688V60.5312H36.1406V65.9688ZM49.7344 27.9062C50.482 27.9062 51.0938 28.518 51.0938 29.2656C51.0938 30.0133 50.482 30.625 49.7344 30.625C48.9867 30.625 48.375 30.0133 48.375 29.2656C48.375 28.518 48.9867 27.9062 49.7344 27.9062ZM49.7344 52.375C50.482 52.375 51.0938 52.9867 51.0938 53.7344C51.0938 54.482 50.482 55.0938 49.7344 55.0938C48.9867 55.0938 48.375 54.482 48.375 53.7344C48.375 52.9867 48.9867 52.375 49.7344 52.375ZM25.2656 55.0938C24.518 55.0938 23.9062 54.482 23.9062 53.7344C23.9062 52.9867 24.518 52.375 25.2656 52.375C26.0133 52.375 26.625 52.9867 26.625 53.7344C26.625 54.482 26.0133 55.0938 25.2656 55.0938ZM25.2656 30.625C24.518 30.625 23.9062 30.0133 23.9062 29.2656C23.9062 28.518 24.518 27.9062 25.2656 27.9062C26.0133 27.9062 26.625 28.518 26.625 29.2656C26.625 30.0133 26.0133 30.625 25.2656 30.625ZM29.3438 51.0156C28.5961 51.0156 27.9844 50.4039 27.9844 49.6562V33.3438C27.9844 32.5961 28.5961 31.9844 29.3438 31.9844H45.6562C46.4039 31.9844 47.0156 32.5961 47.0156 33.3438V49.6562C47.0156 50.4039 46.4039 51.0156 45.6562 51.0156H29.3438Z" fill="#71FBF7"/>
</svg>
